<svg width="27" height="27" viewBox="0 0 27 27" fill="none" xmlns="http://www.w3.org/2000/svg">
<path d="M23.625 6.75H22.5V5.625C22.5 5.32663 22.3815 5.04049 22.1705 4.82951C21.9595 4.61853 21.6734 4.5 21.375 4.5C21.0766 4.5 20.7905 4.61853 20.5795 4.82951C20.3685 5.04049 20.25 5.32663 20.25 5.625V6.75H19.125C18.8266 6.75 18.5405 6.86853 18.3295 7.07951C18.1185 7.29049 18 7.57663 18 7.875C18 8.17337 18.1185 8.45952 18.3295 8.6705C18.5405 8.88148 18.8266 9 19.125 9H20.25V10.125C20.25 10.4234 20.3685 10.7095 20.5795 10.9205C20.7905 11.1315 21.0766 11.25 21.375 11.25C21.6734 11.25 21.9595 11.1315 22.1705 10.9205C22.3815 10.7095 22.5 10.4234 22.5 10.125V9H23.625C23.9234 9 24.2095 8.88148 24.4205 8.6705C24.6315 8.45952 24.75 8.17337 24.75 7.875C24.75 7.57663 24.6315 7.29049 24.4205 7.07951C24.2095 6.86853 23.9234 6.75 23.625 6.75ZM11.25 12.375C12.14 12.375 13.01 12.1111 13.7501 11.6166C14.4901 11.1221 15.0669 10.4193 15.4075 9.59708C15.7481 8.77481 15.8372 7.87001 15.6635 6.9971C15.4899 6.12418 15.0613 5.32236 14.432 4.69302C13.8026 4.06368 13.0008 3.6351 12.1279 3.46147C11.255 3.28783 10.3502 3.37695 9.52792 3.71754C8.70566 4.05814 8.00285 4.63491 7.50839 5.37494C7.01392 6.11496 6.75 6.98499 6.75 7.875C6.75 9.06848 7.22411 10.2131 8.06802 11.057C8.91193 11.9009 10.0565 12.375 11.25 12.375ZM18 23.625C18.2984 23.625 18.5845 23.5065 18.7955 23.2955C19.0065 23.0845 19.125 22.7984 19.125 22.5C19.125 20.4114 18.2953 18.4084 16.8185 16.9315C15.3416 15.4547 13.3386 14.625 11.25 14.625C9.16142 14.625 7.15838 15.4547 5.68153 16.9315C4.20469 18.4084 3.375 20.4114 3.375 22.5C3.375 22.7984 3.49353 23.0845 3.7045 23.2955C3.91548 23.5065 4.20163 23.625 4.5 23.625" fill="#1E1E1E"/>
</svg>
