<svg width="23" height="23" viewBox="0 0 23 23" fill="none" xmlns="http://www.w3.org/2000/svg">
<path d="M11.5 10.6375C8.8895 10.6375 8.3605 6.6815 8.3605 6.6815C8.05 4.623 8.993 2.3 11.4655 2.3C13.9495 2.3 14.8925 4.623 14.582 6.6815C14.582 6.6815 14.1105 10.6375 11.5 10.6375ZM11.5 13.593L14.628 11.5C17.3765 11.5 19.826 14.1795 19.826 16.7095V19.573C19.826 19.573 15.6285 20.8725 11.5 20.8725C7.3025 20.8725 3.174 19.573 3.174 19.573V16.7095C3.174 14.122 5.405 11.5575 8.3145 11.5575L11.5 13.593Z" fill="#DFF9FB"/>
</svg>
