<svg width="172" height="172" viewBox="0 0 172 172" fill="none" xmlns="http://www.w3.org/2000/svg">
<g opacity="0.3">
<path d="M14.3334 14.3333H114.667V43H157.667V157.667H14.3334V14.3333ZM143.333 57.3333H114.667V71.6667H129V86H114.667V100.333H129V114.667H114.667V129H129V143.333H143.333V57.3333ZM100.333 28.6667H28.6667V143.333H43V129H86V143.333H100.333V28.6667ZM43 43H57.3334V57.3333H43V43ZM86 43H71.6667V57.3333H86V43ZM43 71.6667H57.3334V86H43V71.6667ZM86 71.6667H71.6667V86H86V71.6667ZM43 100.333H57.3334V114.667H43V100.333ZM86 100.333H71.6667V114.667H86V100.333Z" fill="white"/>
</g>
</svg>
