<svg width="20" height="20" viewBox="0 0 20 20" fill="none" xmlns="http://www.w3.org/2000/svg">
<path d="M5.83301 9.16663H7.49967V10.8333H5.83301V9.16663ZM5.83301 12.5H7.49967V14.1666H5.83301V12.5ZM9.16634 9.16663H10.833V10.8333H9.16634V9.16663ZM9.16634 12.5H10.833V14.1666H9.16634V12.5ZM12.4997 9.16663H14.1663V10.8333H12.4997V9.16663ZM12.4997 12.5H14.1663V14.1666H12.4997V12.5Z" fill="white"/>
<path d="M4.16667 18.3333H15.8333C16.7525 18.3333 17.5 17.5858 17.5 16.6666V4.99996C17.5 4.08079 16.7525 3.33329 15.8333 3.33329H14.1667V1.66663H12.5V3.33329H7.5V1.66663H5.83333V3.33329H4.16667C3.2475 3.33329 2.5 4.08079 2.5 4.99996V16.6666C2.5 17.5858 3.2475 18.3333 4.16667 18.3333ZM15.8333 6.66663L15.8342 16.6666H4.16667V6.66663H15.8333Z" fill="white"/>
</svg>
