<svg width="27" height="27" viewBox="0 0 27 27" fill="none" xmlns="http://www.w3.org/2000/svg">
<g clip-path="url(#clip0_70_110)">
<path d="M14.25 22.5H3C2.60218 22.5 2.22064 22.342 1.93934 22.0607C1.65804 21.7794 1.5 21.3978 1.5 21V6C1.5 5.60218 1.65804 5.22064 1.93934 4.93934C2.22064 4.65804 2.60218 4.5 3 4.5H24C24.3978 4.5 24.7794 4.65804 25.0607 4.93934C25.342 5.22064 25.5 5.60218 25.5 6V13.7775C24.5008 12.5049 23.0474 11.669 21.445 11.4453C19.8426 11.2216 18.2158 11.6276 16.9064 12.5779C15.5969 13.5282 14.7066 14.9489 14.4225 16.5418C14.1383 18.1346 14.4824 19.7755 15.3825 21.12L14.685 21.975L14.25 22.5ZM5.25 9V10.2H18V9H5.25ZM5.25 13.2H13.5V12H5.25V13.2ZM5.25 18.45H12.75V17.25H5.25V18.45Z" fill="#1E1E1E"/>
<path d="M25.3725 17.6925C25.3745 16.9017 25.1802 16.1227 24.8069 15.4255C24.4337 14.7284 23.8933 14.1347 23.2341 13.6979C22.5749 13.261 21.8175 12.9947 21.03 12.9227C20.2425 12.8507 19.4494 12.9753 18.7219 13.2853C17.9944 13.5954 17.3553 14.0812 16.8618 14.6991C16.3683 15.317 16.036 16.0478 15.8945 16.8259C15.7531 17.6039 15.807 18.4049 16.0514 19.157C16.2959 19.9091 16.7232 20.5887 17.295 21.135L15.84 22.9125L16.515 25.62L19.26 22.275C20.1289 22.5319 21.0536 22.5319 21.9225 22.275L24.6675 25.62L25.3425 22.9125L23.8875 21.135C24.3554 20.6917 24.7283 20.158 24.9836 19.5662C25.2389 18.9745 25.3712 18.337 25.3725 17.6925ZM17.3175 17.6925C17.3086 17.0424 17.4932 16.4043 17.8478 15.8595C18.2025 15.3146 18.7112 14.8875 19.3092 14.6325C19.9073 14.3776 20.5677 14.3062 21.2064 14.4275C21.8451 14.5489 22.4333 14.8574 22.8961 15.3139C23.359 15.7705 23.6757 16.3543 23.8058 16.9913C23.936 17.6283 23.8738 18.2896 23.6271 18.8911C23.3804 19.4926 22.9604 20.0072 22.4205 20.3693C21.8805 20.7315 21.2451 20.9249 20.595 20.925C19.7336 20.927 18.9064 20.5882 18.2938 19.9827C17.6812 19.3771 17.3329 18.5538 17.325 17.6925H17.3175Z" fill="#1E1E1E"/>
</g>
<defs>
<clipPath id="clip0_70_110">
<rect width="27" height="27" fill="white"/>
</clipPath>
</defs>
</svg>
