<svg width="17" height="17" viewBox="0 0 17 17" fill="none" xmlns="http://www.w3.org/2000/svg">
<g clip-path="url(#clip0_70_120)">
<path d="M8.97224 14.1668H1.8889C1.63842 14.1668 1.3982 14.0673 1.22108 13.8902C1.04396 13.7131 0.944458 13.4729 0.944458 13.2224V3.77794C0.944458 3.52746 1.04396 3.28724 1.22108 3.11012C1.3982 2.933 1.63842 2.8335 1.8889 2.8335H15.1111C15.3616 2.8335 15.6018 2.933 15.7789 3.11012C15.9561 3.28724 16.0556 3.52746 16.0556 3.77794V8.67489C15.4265 7.87363 14.5114 7.34732 13.5024 7.20648C12.4935 7.06564 11.4692 7.32123 10.6448 7.91958C9.82028 8.51792 9.25973 9.41246 9.08082 10.4153C8.90191 11.4182 9.11857 12.4514 9.68529 13.2979L9.24612 13.8363L8.97224 14.1668ZM3.30557 5.66683V6.42238H11.3333V5.66683H3.30557ZM3.30557 8.31127H8.50001V7.55572H3.30557V8.31127ZM3.30557 11.6168H8.02779V10.8613H3.30557V11.6168Z" fill="black"/>
<path d="M15.9753 11.1397C15.9766 10.6418 15.8542 10.1514 15.6192 9.71239C15.3842 9.27342 15.044 8.89965 14.6289 8.62461C14.2139 8.34957 13.737 8.18186 13.2412 8.13652C12.7453 8.09118 12.246 8.16964 11.7879 8.36485C11.3299 8.56007 10.9275 8.86593 10.6168 9.255C10.306 9.64408 10.0968 10.1042 10.0077 10.5941C9.91868 11.084 9.95262 11.5883 10.1065 12.0618C10.2604 12.5354 10.5295 12.9633 10.8895 13.3072L9.97339 14.4264L10.3984 16.1311L12.1267 14.025C12.6738 14.1868 13.256 14.1868 13.8031 14.025L15.5314 16.1311L15.9564 14.4264L15.0403 13.3072C15.3349 13.0281 15.5697 12.6921 15.7305 12.3195C15.8912 11.9469 15.9745 11.5455 15.9753 11.1397ZM10.9037 11.1397C10.898 10.7304 11.0143 10.3287 11.2376 9.98561C11.4609 9.64255 11.7812 9.37365 12.1577 9.2131C12.5343 9.05256 12.9501 9.00763 13.3522 9.08403C13.7544 9.16042 14.1247 9.35469 14.4162 9.64213C14.7076 9.92957 14.907 10.2972 14.9889 10.6983C15.0709 11.0993 15.0317 11.5157 14.8764 11.8944C14.721 12.2731 14.4566 12.5971 14.1166 12.8251C13.7767 13.0532 13.3766 13.175 12.9673 13.175C12.4249 13.1763 11.9041 12.963 11.5184 12.5817C11.1326 12.2004 10.9134 11.682 10.9084 11.1397H10.9037Z" fill="black"/>
</g>
<defs>
<clipPath id="clip0_70_120">
<rect width="17" height="17" fill="white"/>
</clipPath>
</defs>
</svg>
