<svg width="27" height="27" viewBox="0 0 27 27" fill="none" xmlns="http://www.w3.org/2000/svg">
<path d="M7.2002 19.0517L12.1648 19.0348L23.0008 8.30231C23.4261 7.87706 23.6601 7.31231 23.6601 6.71156C23.6601 6.11081 23.4261 5.54606 23.0008 5.12081L21.2166 3.33656C20.3661 2.48606 18.8822 2.49056 18.0384 3.33319L7.2002 14.0679V19.0517V19.0517ZM19.6258 4.92731L21.4134 6.70819L19.6168 8.48794L17.8326 6.70481L19.6258 4.92731ZM9.4502 15.0062L16.2339 8.28656L18.0182 10.0708L11.2356 16.7882L9.4502 16.7938V15.0062Z" fill="#1E1E1E"/>
<path d="M4.9502 23.5371H20.7002C21.9411 23.5371 22.9502 22.528 22.9502 21.2871V11.5356L20.7002 13.7856V21.2871H8.50295C8.4737 21.2871 8.44332 21.2984 8.41407 21.2984C8.37695 21.2984 8.33982 21.2882 8.30157 21.2871H4.9502V5.53711H12.6531L14.9031 3.28711H4.9502C3.70932 3.28711 2.7002 4.29623 2.7002 5.53711V21.2871C2.7002 22.528 3.70932 23.5371 4.9502 23.5371Z" fill="#1E1E1E"/>
</svg>
