<svg width="17" height="17" viewBox="0 0 17 17" fill="none" xmlns="http://www.w3.org/2000/svg">
<g clip-path="url(#clip0_70_132)">
<path d="M15.2292 8.49996L16.7566 9.9941C16.9779 10.2007 17.0517 10.4589 16.9779 10.7688C16.8894 11.0714 16.6975 11.2595 16.4024 11.3333L14.3217 11.8645L14.9082 13.9231C14.9968 14.2256 14.9267 14.4839 14.698 14.6979C14.484 14.9266 14.2257 14.9967 13.9232 14.9082L11.8646 14.3216L11.3334 16.4023C11.2596 16.6974 11.0714 16.8893 10.7689 16.9778C10.6804 16.9926 10.6103 17 10.5586 17C10.3299 17 10.1418 16.9188 9.99418 16.7565L8.50004 15.2291L7.0059 16.7565C6.7993 16.9778 6.54106 17.0516 6.23116 16.9778C5.92864 16.8967 5.74049 16.7048 5.66671 16.4023L5.13546 14.3216L3.07686 14.9082C2.77435 14.9967 2.5161 14.9266 2.30212 14.6979C2.07339 14.4839 2.0033 14.2256 2.09184 13.9231L2.67843 11.8645L0.597697 11.3333C0.302558 11.2595 0.110718 11.0714 0.0221761 10.7688C-0.0516086 10.4589 0.0221761 10.2007 0.24353 9.9941L1.77087 8.49996L0.24353 7.00581C0.0221761 6.79922 -0.0516086 6.54097 0.0221761 6.23107C0.110718 5.92856 0.302558 5.74041 0.597697 5.66662L2.67843 5.13537L2.09184 3.07678C2.0033 2.77426 2.07339 2.51601 2.30212 2.30204C2.5161 2.07331 2.77435 2.00321 3.07686 2.09175L5.13546 2.67834L5.66671 0.597611C5.74049 0.295094 5.92864 0.106942 6.23116 0.0331577C6.53368 -0.055384 6.79192 0.0147115 7.0059 0.243444L8.50004 1.78186L9.99418 0.243444C10.2082 0.02209 10.4664 -0.0480055 10.7689 0.0331577C11.0714 0.106942 11.2596 0.295094 11.3334 0.597611L11.8646 2.67834L13.9232 2.09175C14.2257 2.00321 14.484 2.07331 14.698 2.30204C14.9267 2.51601 14.9968 2.77426 14.9082 3.07678L14.3217 5.13537L16.4024 5.66662C16.6975 5.74041 16.8894 5.92856 16.9779 6.23107C17.0517 6.54097 16.9779 6.79922 16.7566 7.00581L15.2292 8.49996Z" fill="white"/>
</g>
<defs>
<clipPath id="clip0_70_132">
<rect width="17" height="17" fill="white"/>
</clipPath>
</defs>
</svg>
