<svg width="27" height="27" viewBox="0 0 27 27" fill="none" xmlns="http://www.w3.org/2000/svg">
<path d="M12.375 10.125H14.625V7.875H12.375M13.5 22.5C8.53875 22.5 4.5 18.4613 4.5 13.5C4.5 8.53875 8.53875 4.5 13.5 4.5C18.4613 4.5 22.5 8.53875 22.5 13.5C22.5 18.4613 18.4613 22.5 13.5 22.5ZM13.5 2.25C12.0226 2.25 10.5597 2.54099 9.19481 3.10636C7.8299 3.67172 6.58971 4.50039 5.54505 5.54505C3.43526 7.65483 2.25 10.5163 2.25 13.5C2.25 16.4837 3.43526 19.3452 5.54505 21.455C6.58971 22.4996 7.8299 23.3283 9.19481 23.8936C10.5597 24.459 12.0226 24.75 13.5 24.75C16.4837 24.75 19.3452 23.5647 21.455 21.455C23.5647 19.3452 24.75 16.4837 24.75 13.5C24.75 12.0226 24.459 10.5597 23.8936 9.19481C23.3283 7.8299 22.4996 6.58971 21.455 5.54505C20.4103 4.50039 19.1701 3.67172 17.8052 3.10636C16.4403 2.54099 14.9774 2.25 13.5 2.25ZM12.375 19.125H14.625V12.375H12.375V19.125Z" fill="black"/>
</svg>
