<svg width="25" height="24" viewBox="0 0 25 24" fill="none" xmlns="http://www.w3.org/2000/svg">
<path fill-rule="evenodd" clip-rule="evenodd" d="M2.59009 12C2.59009 6.615 6.95509 2.25 12.3401 2.25C17.7251 2.25 22.0901 6.615 22.0901 12C22.0901 17.385 17.7251 21.75 12.3401 21.75C6.95509 21.75 2.59009 17.385 2.59009 12ZM11.2961 10.558C12.4421 9.985 13.7331 11.021 13.4221 12.264L12.7131 15.1L12.7551 15.08C12.9313 15.0025 13.1306 14.9958 13.3116 15.0612C13.4927 15.1265 13.6417 15.259 13.7277 15.4312C13.8138 15.6033 13.8304 15.802 13.7741 15.9861C13.7177 16.1702 13.5928 16.3255 13.4251 16.42L13.3851 16.442C12.2381 17.015 10.9471 15.979 11.2581 14.736L11.9681 11.9L11.9261 11.92C11.8376 11.9692 11.7401 11.9999 11.6395 12.0104C11.5388 12.0209 11.4371 12.0109 11.3404 11.981C11.2437 11.9511 11.154 11.902 11.0768 11.8366C10.9996 11.7711 10.9365 11.6907 10.8911 11.6002C10.8458 11.5098 10.8193 11.411 10.8131 11.31C10.807 11.209 10.8214 11.1078 10.8554 11.0124C10.8894 10.9171 10.9423 10.8297 11.011 10.7553C11.0797 10.681 11.1627 10.6214 11.2551 10.58L11.2961 10.558ZM12.3401 9C12.539 9 12.7298 8.92098 12.8704 8.78033C13.0111 8.63968 13.0901 8.44891 13.0901 8.25C13.0901 8.05109 13.0111 7.86032 12.8704 7.71967C12.7298 7.57902 12.539 7.5 12.3401 7.5C12.1412 7.5 11.9504 7.57902 11.8098 7.71967C11.6691 7.86032 11.5901 8.05109 11.5901 8.25C11.5901 8.44891 11.6691 8.63968 11.8098 8.78033C11.9504 8.92098 12.1412 9 12.3401 9Z" fill="white"/>
</svg>
