<svg width="27" height="27" viewBox="0 0 27 27" fill="none" xmlns="http://www.w3.org/2000/svg">
<path d="M6.75005 4.05005C6.03396 4.05005 5.34721 4.33451 4.84086 4.84086C4.33451 5.34721 4.05005 6.03396 4.05005 6.75005V20.25C4.05005 20.9661 4.33451 21.6529 4.84086 22.1592C5.34721 22.6656 6.03396 22.95 6.75005 22.95H13.766C13.4487 21.924 13.311 20.6604 13.905 19.71C14.0859 19.3928 14.3289 19.1214 14.6111 18.9H12.825C12.646 18.9 12.4743 18.8289 12.3478 18.7023C12.2212 18.5758 12.15 18.4041 12.15 18.225C12.15 18.046 12.2212 17.8743 12.3478 17.7478C12.4743 17.6212 12.646 17.55 12.825 17.55H16.7508C16.3844 16.9386 16.1938 16.2379 16.2 15.525C16.2 15.2942 16.2176 15.0687 16.2527 14.85H12.825C12.646 14.85 12.4743 14.7789 12.3478 14.6523C12.2212 14.5258 12.15 14.3541 12.15 14.175C12.15 13.996 12.2212 13.8243 12.3478 13.6978C12.4743 13.5712 12.646 13.5 12.825 13.5H16.7144C17.3975 12.2742 18.7002 11.475 20.25 11.475C20.925 11.475 21.6 11.61 22.275 12.015C22.518 12.15 22.7435 12.312 22.95 12.4943V6.75005C22.95 6.03396 22.6656 5.34721 22.1592 4.84086C21.6529 4.33451 20.9661 4.05005 20.25 4.05005H6.75005ZM10.125 9.78755C10.125 10.0561 10.0184 10.3136 9.82849 10.5035C9.63861 10.6934 9.38108 10.8 9.11255 10.8C8.84402 10.8 8.58648 10.6934 8.3966 10.5035C8.20672 10.3136 8.10005 10.0561 8.10005 9.78755C8.10005 9.51902 8.20672 9.26148 8.3966 9.0716C8.58648 8.88172 8.84402 8.77505 9.11255 8.77505C9.38108 8.77505 9.63861 8.88172 9.82849 9.0716C10.0184 9.26148 10.125 9.51902 10.125 9.78755ZM9.11255 14.85C8.84402 14.85 8.58648 14.7434 8.3966 14.5535C8.20672 14.3636 8.10005 14.1061 8.10005 13.8375C8.10005 13.569 8.20672 13.3115 8.3966 13.1216C8.58648 12.9317 8.84402 12.825 9.11255 12.825C9.38108 12.825 9.63861 12.9317 9.82849 13.1216C10.0184 13.3115 10.125 13.569 10.125 13.8375C10.125 14.1061 10.0184 14.3636 9.82849 14.5535C9.63861 14.7434 9.38108 14.85 9.11255 14.85ZM10.125 17.8875C10.125 18.1561 10.0184 18.4136 9.82849 18.6035C9.63861 18.7934 9.38108 18.9 9.11255 18.9C8.84402 18.9 8.58648 18.7934 8.3966 18.6035C8.20672 18.4136 8.10005 18.1561 8.10005 17.8875C8.10005 17.619 8.20672 17.3615 8.3966 17.1716C8.58648 16.9817 8.84402 16.875 9.11255 16.875C9.38108 16.875 9.63861 16.9817 9.82849 17.1716C10.0184 17.3615 10.125 17.619 10.125 17.8875ZM12.825 9.45005H18.225C18.4041 9.45005 18.5758 9.52116 18.7023 9.64775C18.8289 9.77434 18.9 9.94603 18.9 10.125C18.9 10.3041 18.8289 10.4758 18.7023 10.6023C18.5758 10.7289 18.4041 10.8 18.225 10.8H12.825C12.646 10.8 12.4743 10.7289 12.3478 10.6023C12.2212 10.4758 12.15 10.3041 12.15 10.125C12.15 9.94603 12.2212 9.77434 12.3478 9.64775C12.4743 9.52116 12.646 9.45005 12.825 9.45005ZM21.6 13.1868C21.2929 13.0096 20.9538 12.8945 20.6022 12.8483C20.2506 12.802 19.8934 12.8255 19.5508 12.9173C18.859 13.1027 18.2692 13.5554 17.9112 14.1757C17.5531 14.796 17.4562 15.5332 17.6416 16.225C17.8271 16.9168 18.2797 17.5066 18.9 17.8646C19.5204 18.2226 20.2575 18.3196 20.9493 18.1342C21.6411 17.9487 22.2309 17.496 22.5889 16.8757C22.947 16.2554 23.0439 15.5183 22.8585 14.8265C22.673 14.1347 22.2204 13.5449 21.6 13.1868ZM14.85 21.2625C14.85 20.331 15.606 19.575 16.5375 19.575H23.9625C24.894 19.575 25.65 20.331 25.65 21.2625V21.3813C25.6514 21.4772 25.6528 21.573 25.6487 21.6689C25.6361 21.8749 25.6063 22.0794 25.5596 22.2804C25.4432 22.7806 25.2324 23.2539 24.9386 23.675C24.1988 24.728 22.7948 25.65 20.25 25.65C18.0752 25.65 16.7319 24.975 15.9287 24.1245C15.4408 23.6091 15.1001 22.9723 14.9418 22.2804C14.8947 22.0795 14.8644 21.8749 14.8514 21.6689L14.85 21.2666V21.2625Z" fill="#1E1E1E"/>
</svg>
