<svg width="23" height="23" viewBox="0 0 23 23" fill="none" xmlns="http://www.w3.org/2000/svg">
<path d="M17.25 10.35H16.1V6.9C16.1 4.37 14.03 2.3 11.5 2.3C8.97001 2.3 6.90001 4.37 6.90001 6.9V10.35H5.75001C5.17501 10.35 4.60001 10.925 4.60001 11.5V19.55C4.60001 20.125 5.17501 20.7 5.75001 20.7H17.25C17.825 20.7 18.4 20.125 18.4 19.55V11.5C18.4 10.925 17.825 10.35 17.25 10.35ZM12.65 18.4H10.35L10.81 15.87C10.235 15.64 9.77501 14.95 9.77501 14.375C9.77501 13.455 10.58 12.65 11.5 12.65C12.42 12.65 13.225 13.455 13.225 14.375C13.225 15.065 12.88 15.64 12.19 15.87L12.65 18.4ZM13.8 10.35H9.20001V6.9C9.20001 5.635 10.235 4.6 11.5 4.6C12.765 4.6 13.8 5.635 13.8 6.9V10.35Z" fill="#DFF9FB"/>
</svg>
