<svg width="27" height="27" viewBox="0 0 27 27" fill="none" xmlns="http://www.w3.org/2000/svg">
<path d="M11.25 13.5C13.7353 13.5 15.75 11.4853 15.75 9C15.75 6.51472 13.7353 4.5 11.25 4.5C8.76472 4.5 6.75 6.51472 6.75 9C6.75 11.4853 8.76472 13.5 11.25 13.5Z" fill="#1E1E1E"/>
<path d="M12.0037 14.6475C11.7563 14.6363 11.5087 14.625 11.25 14.625C8.5275 14.625 5.985 15.3787 3.81375 16.6725C2.82375 17.2575 2.25 18.36 2.25 19.5188V22.5H12.6675C11.8729 21.3665 11.3929 20.0427 11.2763 18.6633C11.1597 17.2839 11.4107 15.8983 12.0037 14.6475ZM23.3438 18C23.3438 17.7525 23.31 17.5275 23.2763 17.2912L24.5588 16.155L23.4338 14.2088L21.8025 14.76C21.4425 14.4562 21.0375 14.22 20.5875 14.0512L20.25 12.375H18L17.6625 14.0512C17.2125 14.22 16.8075 14.4562 16.4475 14.76L14.8162 14.2088L13.6912 16.155L14.9738 17.2912C14.94 17.5275 14.9062 17.7525 14.9062 18C14.9062 18.2475 14.94 18.4725 14.9738 18.7087L13.6912 19.845L14.8162 21.7913L16.4475 21.24C16.8075 21.5437 17.2125 21.78 17.6625 21.9488L18 23.625H20.25L20.5875 21.9488C21.0375 21.78 21.4425 21.5437 21.8025 21.24L23.4338 21.7913L24.5588 19.845L23.2763 18.7087C23.31 18.4725 23.3438 18.2475 23.3438 18ZM19.125 20.25C17.8875 20.25 16.875 19.2375 16.875 18C16.875 16.7625 17.8875 15.75 19.125 15.75C20.3625 15.75 21.375 16.7625 21.375 18C21.375 19.2375 20.3625 20.25 19.125 20.25Z" fill="#1E1E1E"/>
</svg>
