<svg width="172" height="172" viewBox="0 0 172 172" fill="none" xmlns="http://www.w3.org/2000/svg">
<g opacity="0.3">
<path d="M155.875 74.5781H137.734V55.4969C137.734 52.5238 135.332 50.1219 132.359 50.1219H79.4492L59.7465 31.2758C59.4958 31.0411 59.166 30.9092 58.8227 30.9062H16.125C13.152 30.9062 10.75 33.3082 10.75 36.2812V135.719C10.75 138.692 13.152 141.094 16.125 141.094H133.367C135.551 141.094 137.533 139.767 138.356 137.734L160.864 81.9688C161.116 81.3305 161.25 80.6418 161.25 79.9531C161.25 76.9801 158.848 74.5781 155.875 74.5781ZM125.641 74.5781H39.9766C37.793 74.5781 35.8109 75.9051 34.9879 77.9375L22.8438 108.037V43H54.5059L74.5949 62.2156H125.641V74.5781Z" fill="white"/>
</g>
</svg>
