<svg width="172" height="172" viewBox="0 0 172 172" fill="none" xmlns="http://www.w3.org/2000/svg">
<g opacity="0.3">
<path d="M75.25 150.5C75.25 150.5 64.5 150.5 64.5 139.75C64.5 129 75.25 96.75 118.25 96.75C161.25 96.75 172 129 172 139.75C172 150.5 161.25 150.5 161.25 150.5H75.25ZM118.25 86C126.803 86 135.006 82.6022 141.054 76.5542C147.102 70.5061 150.5 62.3032 150.5 53.75C150.5 45.1968 147.102 36.9939 141.054 30.9458C135.006 24.8978 126.803 21.5 118.25 21.5C109.697 21.5 101.494 24.8978 95.4458 30.9458C89.3978 36.9939 86 45.1968 86 53.75C86 62.3032 89.3978 70.5061 95.4458 76.5542C101.494 82.6022 109.697 86 118.25 86Z" fill="white"/>
<path fill-rule="evenodd" clip-rule="evenodd" d="M56.072 150.5C54.4784 147.144 53.6836 143.465 53.75 139.75C53.75 125.184 61.06 110.188 74.562 99.76C67.8227 97.6835 60.8014 96.668 53.75 96.75C10.75 96.75 0 129 0 139.75C0 150.5 10.75 150.5 10.75 150.5H56.072Z" fill="white"/>
<path d="M48.375 86C55.5027 86 62.3385 83.1685 67.3785 78.1285C72.4185 73.0885 75.25 66.2527 75.25 59.125C75.25 51.9973 72.4185 45.1615 67.3785 40.1215C62.3385 35.0815 55.5027 32.25 48.375 32.25C41.2473 32.25 34.4115 35.0815 29.3715 40.1215C24.3315 45.1615 21.5 51.9973 21.5 59.125C21.5 66.2527 24.3315 73.0885 29.3715 78.1285C34.4115 83.1685 41.2473 86 48.375 86Z" fill="white"/>
</g>
</svg>
