<svg width="20" height="20" viewBox="0 0 20 20" fill="none" xmlns="http://www.w3.org/2000/svg">
<path d="M8.33329 13.3333V12.5H2.50829L2.49996 15.8333C2.49996 16.7583 3.24163 17.5 4.16663 17.5H15.8333C16.7583 17.5 17.5 16.7583 17.5 15.8333V12.5H11.6666V13.3333H8.33329ZM16.6666 5.83333H13.325V4.16667L11.6583 2.5H8.32496L6.65829 4.16667V5.83333H3.33329C2.41663 5.83333 1.66663 6.58333 1.66663 7.5V10C1.66663 10.925 2.40829 11.6667 3.33329 11.6667H8.33329V10H11.6666V11.6667H16.6666C17.5833 11.6667 18.3333 10.9167 18.3333 10V7.5C18.3333 6.58333 17.5833 5.83333 16.6666 5.83333ZM11.6666 5.83333H8.33329V4.16667H11.6666V5.83333Z" fill="#1E1E1E"/>
</svg>
