<svg width="17" height="17" viewBox="0 0 17 17" fill="none" xmlns="http://www.w3.org/2000/svg">
<g clip-path="url(#clip0_70_148)">
<path d="M16.5617 5.44579C16.9495 5.73134 17.1222 6.3788 16.8698 6.89013C16.6653 7.37489 16.1473 7.59071 15.7382 7.27529L8.47606 2.27855L1.26275 7.27529C0.852356 7.59071 0.334918 7.37489 0.106879 6.89013C-0.121107 6.3788 0.02674 5.73134 0.437184 5.44579L8.08825 0.134189C8.34325 -0.0440786 8.65668 -0.0440786 8.91168 0.134189L16.5617 5.44579ZM7.41356 6.64111C7.41356 5.90732 7.91293 5.31298 8.47606 5.31298C9.087 5.31298 9.53856 5.90732 9.53856 6.64111C9.53856 7.37489 9.087 7.96923 8.47606 7.96923C7.91293 7.96923 7.41356 7.37489 7.41356 6.64111ZM2.73856 9.82861C2.73856 9.09482 3.23793 8.50048 3.80106 8.50048C4.412 8.50048 4.86356 9.09482 4.86356 9.82861C4.86356 10.5624 4.412 11.1567 3.80106 11.1567C3.23793 11.1567 2.73856 10.5624 2.73856 9.82861ZM14.2136 9.82861C14.2136 10.5624 13.762 11.1567 13.1511 11.1567C12.5879 11.1567 12.0886 10.5624 12.0886 9.82861C12.0886 9.09482 12.5879 8.50048 13.1511 8.50048C13.762 8.50048 14.2136 9.09482 14.2136 9.82861ZM6.027 16.3165L5.28856 14.6597V15.938C5.28856 16.5257 4.93262 17.0005 4.43856 17.0005H3.16356C2.71731 17.0005 2.31356 16.5257 2.31356 15.938V14.6597L1.62373 16.3165C1.45665 16.7017 1.07017 16.8477 0.760184 16.6386C0.450199 16.4294 0.334121 15.9479 0.501199 15.5595L1.50712 13.2253C1.91486 12.279 2.70668 11.688 3.56465 11.688H4.08528C4.51825 11.688 4.93262 11.8374 5.29121 12.1063L6.18106 10.0378C6.59012 9.0915 7.38168 8.4706 8.23965 8.4706H8.76028C9.61825 8.4706 10.4098 9.0915 10.8189 10.0378L11.7087 12.1063C12.0673 11.8374 12.4817 11.688 12.9147 11.688H13.4353C14.2932 11.688 15.0848 12.279 15.4939 13.2253L16.4979 15.5595C16.6653 15.9479 16.5484 16.4294 16.2403 16.6386C15.9295 16.8477 15.5443 16.7017 15.377 16.3165L14.6386 14.6597V15.938C14.6386 16.5257 14.2826 17.0005 13.7886 17.0005H12.5136C12.0673 17.0005 11.6636 16.5257 11.6636 15.938V14.6597L10.9729 16.3165C10.8056 16.7017 10.4204 16.8477 10.1097 16.6386C9.77762 16.4294 9.68465 15.9479 9.852 15.5595L10.8162 13.3183C10.7711 13.2651 10.7312 13.202 10.702 13.129L9.96356 11.4722V13.2817C9.96356 13.8694 9.60762 14.3442 9.11356 14.3442H7.83856C7.39231 14.3442 6.98856 13.8694 6.98856 13.2817V11.4722L6.29793 13.129C6.24481 13.202 6.22887 13.2651 6.18371 13.3183L7.14793 15.5595C7.31528 15.9479 7.1984 16.4294 6.89028 16.6386C6.5795 16.8477 6.19434 16.7017 6.027 16.3165Z" fill="white"/>
</g>
<defs>
<clipPath id="clip0_70_148">
<rect width="17" height="17" fill="white"/>
</clipPath>
</defs>
</svg>
