<svg width="29" height="29" viewBox="0 0 29 29" fill="none" xmlns="http://www.w3.org/2000/svg">
<path d="M9.96875 5.43748V2.71692C9.96875 2.47657 10.0642 2.24606 10.2342 2.0761C10.4041 1.90615 10.6346 1.81067 10.875 1.81067H18.125C18.3654 1.81067 18.5959 1.90615 18.7658 2.0761C18.9358 2.24606 19.0312 2.47657 19.0312 2.71692V5.43748H26.2812C26.5216 5.43748 26.7521 5.53296 26.9221 5.70292C27.092 5.87287 27.1875 6.10338 27.1875 6.34373C27.1875 6.58408 27.092 6.81459 26.9221 6.98455C26.7521 7.1545 26.5216 7.24998 26.2812 7.24998H2.71875C2.4784 7.24998 2.24789 7.1545 2.07793 6.98455C1.90798 6.81459 1.8125 6.58408 1.8125 6.34373C1.8125 6.10338 1.90798 5.87287 2.07793 5.70292C2.24789 5.53296 2.4784 5.43748 2.71875 5.43748H9.96875ZM11.7812 5.43748H17.2188V3.62498H11.7812V5.43748ZM5.4375 27.1875C5.19715 27.1875 4.96664 27.092 4.79668 26.922C4.62673 26.7521 4.53125 26.5216 4.53125 26.2812V7.24998H24.4688V26.2812C24.4688 26.5216 24.3733 26.7521 24.2033 26.922C24.0334 27.092 23.8029 27.1875 23.5625 27.1875H5.4375ZM11.7812 21.75C12.0216 21.75 12.2521 21.6545 12.4221 21.4845C12.592 21.3146 12.6875 21.0841 12.6875 20.8437V11.7812C12.6875 11.5409 12.592 11.3104 12.4221 11.1404C12.2521 10.9705 12.0216 10.875 11.7812 10.875C11.5409 10.875 11.3104 10.9705 11.1404 11.1404C10.9705 11.3104 10.875 11.5409 10.875 11.7812V20.8437C10.875 21.0841 10.9705 21.3146 11.1404 21.4845C11.3104 21.6545 11.5409 21.75 11.7812 21.75ZM17.2188 21.75C17.4591 21.75 17.6896 21.6545 17.8596 21.4845C18.0295 21.3146 18.125 21.0841 18.125 20.8437V11.7812C18.125 11.5409 18.0295 11.3104 17.8596 11.1404C17.6896 10.9705 17.4591 10.875 17.2188 10.875C16.9784 10.875 16.7479 10.9705 16.5779 11.1404C16.408 11.3104 16.3125 11.5409 16.3125 11.7812V20.8437C16.3125 21.0841 16.408 21.3146 16.5779 21.4845C16.7479 21.6545 16.9784 21.75 17.2188 21.75Z" fill="#FB2B29"/>
</svg>
