<svg width="19" height="19" viewBox="0 0 19 19" fill="none" xmlns="http://www.w3.org/2000/svg">
<path d="M5.51445 5.7668C5.40296 5.65422 5.34041 5.50219 5.34041 5.34375C5.34041 5.18531 5.40296 5.03327 5.51445 4.9207L9.07695 1.3582C9.18952 1.24671 9.34156 1.18416 9.5 1.18416C9.65844 1.18416 9.81048 1.24671 9.92305 1.3582L13.4855 4.9207C13.597 5.03327 13.6596 5.18531 13.6596 5.34375C13.6596 5.50219 13.597 5.65422 13.4855 5.7668C13.3721 5.87653 13.2204 5.93788 13.0625 5.93788C12.9046 5.93788 12.7529 5.87653 12.6395 5.7668L10.0938 3.21367V9.5C10.0938 9.65747 10.0312 9.80849 9.91985 9.91984C9.8085 10.0312 9.65747 10.0937 9.5 10.0937C9.34253 10.0937 9.19151 10.0312 9.08016 9.91984C8.96881 9.80849 8.90625 9.65747 8.90625 9.5V3.21367L6.36055 5.7668C6.24798 5.87829 6.09594 5.94084 5.9375 5.94084C5.77906 5.94084 5.62702 5.87829 5.51445 5.7668ZM17.8125 10.0937V14.8437C17.8125 15.1587 17.6874 15.4607 17.4647 15.6834C17.242 15.9061 16.9399 16.0312 16.625 16.0312H2.375C2.06006 16.0312 1.75801 15.9061 1.53531 15.6834C1.31261 15.4607 1.1875 15.1587 1.1875 14.8437V10.0937C1.1875 9.7788 1.31261 9.47676 1.53531 9.25406C1.75801 9.03136 2.06006 8.90625 2.375 8.90625H7.42188C7.50061 8.90625 7.57612 8.93753 7.6318 8.9932C7.68747 9.04888 7.71875 9.12439 7.71875 9.20312V9.46289C7.71875 10.4574 8.53516 11.3035 9.53711 11.2812C10.0031 11.2715 10.4467 11.0796 10.7727 10.7466C11.0988 10.4136 11.2814 9.96605 11.2812 9.5V9.20312C11.2812 9.12439 11.3125 9.04888 11.3682 8.9932C11.4239 8.93753 11.4994 8.90625 11.5781 8.90625H16.625C16.9399 8.90625 17.242 9.03136 17.4647 9.25406C17.6874 9.47676 17.8125 9.7788 17.8125 10.0937ZM14.8438 12.4687C14.8438 12.2926 14.7915 12.1204 14.6937 11.9739C14.5958 11.8275 14.4567 11.7133 14.294 11.6459C14.1312 11.5785 13.9521 11.5609 13.7794 11.5952C13.6066 11.6296 13.4479 11.7144 13.3234 11.839C13.1988 11.9635 13.114 12.1222 13.0796 12.295C13.0452 12.4678 13.0629 12.6468 13.1303 12.8096C13.1977 12.9723 13.3119 13.1114 13.4583 13.2093C13.6048 13.3071 13.777 13.3594 13.9531 13.3594C14.1893 13.3594 14.4159 13.2655 14.5829 13.0985C14.7499 12.9315 14.8438 12.705 14.8438 12.4687Z" fill="black"/>
</svg>
